<mxfile host="app.diagrams.net" modified="2021-10-01T04:41:22.661Z" agent="5.0 (Windows NT 10.0; Win64; x64) AppleWebKit/537.36 (KHTML, like Gecko) Chrome/94.0.4606.61 Safari/537.36" etag="D-3wsFzeSbu7MtygtzfL" version="15.2.9" type="github">
  <diagram id="R2lEEEUBdFMjLlhIrx00" name="Page-1">
    <mxGraphModel dx="868" dy="450" grid="1" gridSize="10" guides="1" tooltips="1" connect="1" arrows="1" fold="1" page="1" pageScale="1" pageWidth="850" pageHeight="1100" math="0" shadow="0" extFonts="Permanent Marker^https://fonts.googleapis.com/css?family=Permanent+Marker">
      <root>
        <mxCell id="0" />
        <mxCell id="1" parent="0" />
        <mxCell id="yH6eU9cKHQrGavgD3DMS-107" value="" style="edgeStyle=orthogonalEdgeStyle;rounded=0;orthogonalLoop=1;jettySize=auto;html=1;endArrow=none;endFill=0;" parent="1" source="yH6eU9cKHQrGavgD3DMS-20" target="yH6eU9cKHQrGavgD3DMS-53" edge="1">
          <mxGeometry relative="1" as="geometry" />
        </mxCell>
        <mxCell id="yH6eU9cKHQrGavgD3DMS-20" value="Estacionamento" style="rounded=1;arcSize=10;whiteSpace=wrap;html=1;align=center;" parent="1" vertex="1">
          <mxGeometry x="340" y="20" width="100" height="40" as="geometry" />
        </mxCell>
        <mxCell id="yH6eU9cKHQrGavgD3DMS-109" value="" style="edgeStyle=orthogonalEdgeStyle;rounded=0;orthogonalLoop=1;jettySize=auto;html=1;endArrow=none;endFill=0;" parent="1" source="yH6eU9cKHQrGavgD3DMS-21" target="yH6eU9cKHQrGavgD3DMS-24" edge="1">
          <mxGeometry relative="1" as="geometry" />
        </mxCell>
        <mxCell id="yH6eU9cKHQrGavgD3DMS-21" value="Vagas" style="rounded=1;arcSize=10;whiteSpace=wrap;html=1;align=center;" parent="1" vertex="1">
          <mxGeometry x="660" y="20" width="100" height="40" as="geometry" />
        </mxCell>
        <mxCell id="yH6eU9cKHQrGavgD3DMS-110" value="" style="edgeStyle=orthogonalEdgeStyle;rounded=0;orthogonalLoop=1;jettySize=auto;html=1;endArrow=none;endFill=0;" parent="1" source="yH6eU9cKHQrGavgD3DMS-24" target="yH6eU9cKHQrGavgD3DMS-26" edge="1">
          <mxGeometry relative="1" as="geometry" />
        </mxCell>
        <mxCell id="yH6eU9cKHQrGavgD3DMS-24" value="ocupa" style="shape=rhombus;perimeter=rhombusPerimeter;whiteSpace=wrap;html=1;align=center;" parent="1" vertex="1">
          <mxGeometry x="660" y="120" width="100" height="50" as="geometry" />
        </mxCell>
        <mxCell id="yH6eU9cKHQrGavgD3DMS-55" value="" style="edgeStyle=orthogonalEdgeStyle;rounded=0;orthogonalLoop=1;jettySize=auto;html=1;endArrow=none;endFill=0;" parent="1" source="yH6eU9cKHQrGavgD3DMS-25" target="yH6eU9cKHQrGavgD3DMS-54" edge="1">
          <mxGeometry relative="1" as="geometry">
            <Array as="points">
              <mxPoint x="470" y="250" />
              <mxPoint x="470" y="285" />
            </Array>
          </mxGeometry>
        </mxCell>
        <mxCell id="yH6eU9cKHQrGavgD3DMS-62" style="edgeStyle=orthogonalEdgeStyle;rounded=0;orthogonalLoop=1;jettySize=auto;html=1;entryX=0;entryY=0.5;entryDx=0;entryDy=0;endArrow=none;endFill=0;" parent="1" source="yH6eU9cKHQrGavgD3DMS-25" target="yH6eU9cKHQrGavgD3DMS-52" edge="1">
          <mxGeometry relative="1" as="geometry" />
        </mxCell>
        <mxCell id="yH6eU9cKHQrGavgD3DMS-25" value="Manobristas" style="rounded=1;arcSize=10;whiteSpace=wrap;html=1;align=center;" parent="1" vertex="1">
          <mxGeometry x="340" y="220" width="100" height="40" as="geometry" />
        </mxCell>
        <mxCell id="yH6eU9cKHQrGavgD3DMS-111" value="" style="edgeStyle=orthogonalEdgeStyle;rounded=0;orthogonalLoop=1;jettySize=auto;html=1;endArrow=none;endFill=0;" parent="1" source="yH6eU9cKHQrGavgD3DMS-26" target="yH6eU9cKHQrGavgD3DMS-39" edge="1">
          <mxGeometry relative="1" as="geometry" />
        </mxCell>
        <mxCell id="yH6eU9cKHQrGavgD3DMS-26" value="Carros" style="rounded=1;arcSize=10;whiteSpace=wrap;html=1;align=center;" parent="1" vertex="1">
          <mxGeometry x="660" y="220" width="100" height="40" as="geometry" />
        </mxCell>
        <mxCell id="yH6eU9cKHQrGavgD3DMS-119" value="" style="edgeStyle=orthogonalEdgeStyle;rounded=0;orthogonalLoop=1;jettySize=auto;html=1;endArrow=none;endFill=0;" parent="1" source="yH6eU9cKHQrGavgD3DMS-27" target="yH6eU9cKHQrGavgD3DMS-114" edge="1">
          <mxGeometry relative="1" as="geometry" />
        </mxCell>
        <mxCell id="yH6eU9cKHQrGavgD3DMS-27" value="Comprovantes" style="rounded=1;arcSize=10;whiteSpace=wrap;html=1;align=center;" parent="1" vertex="1">
          <mxGeometry x="340" y="400" width="100" height="40" as="geometry" />
        </mxCell>
        <mxCell id="yH6eU9cKHQrGavgD3DMS-28" value="Clientes" style="rounded=1;arcSize=10;whiteSpace=wrap;html=1;align=center;" parent="1" vertex="1">
          <mxGeometry x="660" y="400" width="100" height="40" as="geometry" />
        </mxCell>
        <mxCell id="yH6eU9cKHQrGavgD3DMS-112" value="" style="edgeStyle=orthogonalEdgeStyle;rounded=0;orthogonalLoop=1;jettySize=auto;html=1;endArrow=none;endFill=0;" parent="1" source="yH6eU9cKHQrGavgD3DMS-39" target="yH6eU9cKHQrGavgD3DMS-28" edge="1">
          <mxGeometry relative="1" as="geometry" />
        </mxCell>
        <mxCell id="yH6eU9cKHQrGavgD3DMS-39" value="deixa" style="shape=rhombus;perimeter=rhombusPerimeter;whiteSpace=wrap;html=1;align=center;" parent="1" vertex="1">
          <mxGeometry x="660" y="300" width="100" height="50" as="geometry" />
        </mxCell>
        <mxCell id="yH6eU9cKHQrGavgD3DMS-45" value="" style="edgeStyle=orthogonalEdgeStyle;rounded=0;orthogonalLoop=1;jettySize=auto;html=1;endArrow=none;endFill=0;" parent="1" source="yH6eU9cKHQrGavgD3DMS-40" target="yH6eU9cKHQrGavgD3DMS-43" edge="1">
          <mxGeometry relative="1" as="geometry">
            <Array as="points">
              <mxPoint x="710" y="530" />
              <mxPoint x="810" y="530" />
            </Array>
          </mxGeometry>
        </mxCell>
        <mxCell id="yH6eU9cKHQrGavgD3DMS-47" value="" style="edgeStyle=orthogonalEdgeStyle;rounded=0;orthogonalLoop=1;jettySize=auto;html=1;endArrow=none;endFill=0;" parent="1" source="yH6eU9cKHQrGavgD3DMS-40" target="yH6eU9cKHQrGavgD3DMS-28" edge="1">
          <mxGeometry relative="1" as="geometry" />
        </mxCell>
        <mxCell id="yH6eU9cKHQrGavgD3DMS-50" value="" style="edgeStyle=orthogonalEdgeStyle;rounded=0;orthogonalLoop=1;jettySize=auto;html=1;endArrow=none;endFill=0;startArrow=none;" parent="1" source="yH6eU9cKHQrGavgD3DMS-40" target="yH6eU9cKHQrGavgD3DMS-28" edge="1">
          <mxGeometry relative="1" as="geometry" />
        </mxCell>
        <mxCell id="yH6eU9cKHQrGavgD3DMS-42" value="Avulsos" style="rounded=1;arcSize=10;whiteSpace=wrap;html=1;align=center;" parent="1" vertex="1">
          <mxGeometry x="580" y="570" width="100" height="40" as="geometry" />
        </mxCell>
        <mxCell id="yH6eU9cKHQrGavgD3DMS-43" value="Mensalista" style="rounded=1;arcSize=10;whiteSpace=wrap;html=1;align=center;" parent="1" vertex="1">
          <mxGeometry x="770" y="570" width="100" height="40" as="geometry" />
        </mxCell>
        <mxCell id="yH6eU9cKHQrGavgD3DMS-40" value="" style="triangle;whiteSpace=wrap;html=1;rotation=-90;" parent="1" vertex="1">
          <mxGeometry x="690" y="470" width="40" height="50" as="geometry" />
        </mxCell>
        <mxCell id="yH6eU9cKHQrGavgD3DMS-51" value="" style="edgeStyle=orthogonalEdgeStyle;rounded=0;orthogonalLoop=1;jettySize=auto;html=1;endArrow=none;endFill=0;" parent="1" source="yH6eU9cKHQrGavgD3DMS-42" target="yH6eU9cKHQrGavgD3DMS-40" edge="1">
          <mxGeometry relative="1" as="geometry">
            <mxPoint x="630.0588235294119" y="550" as="sourcePoint" />
            <mxPoint x="710.0588235294119" y="440" as="targetPoint" />
            <Array as="points">
              <mxPoint x="620" y="530" />
              <mxPoint x="710" y="530" />
            </Array>
          </mxGeometry>
        </mxCell>
        <mxCell id="yH6eU9cKHQrGavgD3DMS-59" value="" style="edgeStyle=orthogonalEdgeStyle;rounded=0;orthogonalLoop=1;jettySize=auto;html=1;endArrow=none;endFill=0;" parent="1" source="yH6eU9cKHQrGavgD3DMS-52" target="yH6eU9cKHQrGavgD3DMS-26" edge="1">
          <mxGeometry relative="1" as="geometry" />
        </mxCell>
        <mxCell id="yH6eU9cKHQrGavgD3DMS-52" value="retira" style="shape=rhombus;perimeter=rhombusPerimeter;whiteSpace=wrap;html=1;align=center;" parent="1" vertex="1">
          <mxGeometry x="500" y="170" width="100" height="50" as="geometry" />
        </mxCell>
        <mxCell id="yH6eU9cKHQrGavgD3DMS-108" value="" style="edgeStyle=orthogonalEdgeStyle;rounded=0;orthogonalLoop=1;jettySize=auto;html=1;endArrow=none;endFill=0;" parent="1" source="yH6eU9cKHQrGavgD3DMS-53" target="yH6eU9cKHQrGavgD3DMS-21" edge="1">
          <mxGeometry relative="1" as="geometry" />
        </mxCell>
        <mxCell id="yH6eU9cKHQrGavgD3DMS-53" value="possui" style="shape=rhombus;perimeter=rhombusPerimeter;whiteSpace=wrap;html=1;align=center;" parent="1" vertex="1">
          <mxGeometry x="500" y="15" width="100" height="50" as="geometry" />
        </mxCell>
        <mxCell id="yH6eU9cKHQrGavgD3DMS-61" style="edgeStyle=orthogonalEdgeStyle;rounded=0;orthogonalLoop=1;jettySize=auto;html=1;entryX=0;entryY=0.75;entryDx=0;entryDy=0;endArrow=none;endFill=0;" parent="1" source="yH6eU9cKHQrGavgD3DMS-54" target="yH6eU9cKHQrGavgD3DMS-26" edge="1">
          <mxGeometry relative="1" as="geometry" />
        </mxCell>
        <mxCell id="yH6eU9cKHQrGavgD3DMS-54" value="estaciona" style="shape=rhombus;perimeter=rhombusPerimeter;whiteSpace=wrap;html=1;align=center;" parent="1" vertex="1">
          <mxGeometry x="500" y="260" width="100" height="50" as="geometry" />
        </mxCell>
        <mxCell id="yH6eU9cKHQrGavgD3DMS-81" style="edgeStyle=orthogonalEdgeStyle;rounded=0;orthogonalLoop=1;jettySize=auto;html=1;exitX=0.5;exitY=0;exitDx=0;exitDy=0;entryX=0.584;entryY=0.996;entryDx=0;entryDy=0;entryPerimeter=0;endArrow=none;endFill=0;" parent="1" source="yH6eU9cKHQrGavgD3DMS-63" target="yH6eU9cKHQrGavgD3DMS-43" edge="1">
          <mxGeometry relative="1" as="geometry">
            <Array as="points">
              <mxPoint x="828" y="650" />
            </Array>
          </mxGeometry>
        </mxCell>
        <mxCell id="yH6eU9cKHQrGavgD3DMS-63" value="Nome" style="ellipse;whiteSpace=wrap;html=1;align=left;spacingLeft=21;" parent="1" vertex="1">
          <mxGeometry x="820" y="650" width="20" height="20" as="geometry" />
        </mxCell>
        <mxCell id="yH6eU9cKHQrGavgD3DMS-78" style="edgeStyle=orthogonalEdgeStyle;rounded=0;orthogonalLoop=1;jettySize=auto;html=1;exitX=0;exitY=0.5;exitDx=0;exitDy=0;entryX=0.25;entryY=1;entryDx=0;entryDy=0;endArrow=none;endFill=0;" parent="1" source="yH6eU9cKHQrGavgD3DMS-75" target="yH6eU9cKHQrGavgD3DMS-43" edge="1">
          <mxGeometry relative="1" as="geometry">
            <Array as="points">
              <mxPoint x="795" y="690" />
            </Array>
          </mxGeometry>
        </mxCell>
        <mxCell id="yH6eU9cKHQrGavgD3DMS-75" value="Valor Mensal" style="ellipse;whiteSpace=wrap;html=1;align=left;spacingLeft=21;" parent="1" vertex="1">
          <mxGeometry x="790" y="680" width="20" height="20" as="geometry" />
        </mxCell>
        <mxCell id="yH6eU9cKHQrGavgD3DMS-94" style="edgeStyle=orthogonalEdgeStyle;rounded=0;orthogonalLoop=1;jettySize=auto;html=1;entryX=1;entryY=0.75;entryDx=0;entryDy=0;endArrow=none;endFill=0;" parent="1" source="yH6eU9cKHQrGavgD3DMS-84" target="yH6eU9cKHQrGavgD3DMS-26" edge="1">
          <mxGeometry relative="1" as="geometry">
            <Array as="points">
              <mxPoint x="760" y="240" />
            </Array>
          </mxGeometry>
        </mxCell>
        <mxCell id="yH6eU9cKHQrGavgD3DMS-84" value="Placa" style="ellipse;whiteSpace=wrap;html=1;align=left;spacingLeft=21;direction=south;fontStyle=4" parent="1" vertex="1">
          <mxGeometry x="810" y="230" width="20" height="20" as="geometry" />
        </mxCell>
        <mxCell id="yH6eU9cKHQrGavgD3DMS-102" style="edgeStyle=orthogonalEdgeStyle;rounded=0;orthogonalLoop=1;jettySize=auto;html=1;endArrow=none;endFill=0;" parent="1" source="yH6eU9cKHQrGavgD3DMS-91" edge="1">
          <mxGeometry relative="1" as="geometry">
            <mxPoint x="760" y="250" as="targetPoint" />
            <Array as="points">
              <mxPoint x="760" y="270" />
            </Array>
          </mxGeometry>
        </mxCell>
        <mxCell id="yH6eU9cKHQrGavgD3DMS-91" value="Marca" style="ellipse;whiteSpace=wrap;html=1;align=left;spacingLeft=21;" parent="1" vertex="1">
          <mxGeometry x="810" y="260" width="20" height="20" as="geometry" />
        </mxCell>
        <mxCell id="yH6eU9cKHQrGavgD3DMS-106" style="edgeStyle=orthogonalEdgeStyle;rounded=0;orthogonalLoop=1;jettySize=auto;html=1;endArrow=none;endFill=0;entryX=1;entryY=0;entryDx=0;entryDy=0;" parent="1" source="yH6eU9cKHQrGavgD3DMS-104" target="yH6eU9cKHQrGavgD3DMS-26" edge="1">
          <mxGeometry relative="1" as="geometry">
            <mxPoint x="760" y="210" as="targetPoint" />
            <Array as="points">
              <mxPoint x="760" y="210" />
            </Array>
          </mxGeometry>
        </mxCell>
        <mxCell id="yH6eU9cKHQrGavgD3DMS-104" value="Cor" style="ellipse;whiteSpace=wrap;html=1;align=left;spacingLeft=21;direction=south;fontStyle=4" parent="1" vertex="1">
          <mxGeometry x="810" y="200" width="20" height="20" as="geometry" />
        </mxCell>
        <mxCell id="yH6eU9cKHQrGavgD3DMS-120" value="" style="edgeStyle=orthogonalEdgeStyle;rounded=0;orthogonalLoop=1;jettySize=auto;html=1;endArrow=none;endFill=0;" parent="1" source="yH6eU9cKHQrGavgD3DMS-114" target="yH6eU9cKHQrGavgD3DMS-28" edge="1">
          <mxGeometry relative="1" as="geometry" />
        </mxCell>
        <mxCell id="yH6eU9cKHQrGavgD3DMS-114" value="entrega" style="shape=rhombus;perimeter=rhombusPerimeter;whiteSpace=wrap;html=1;align=center;" parent="1" vertex="1">
          <mxGeometry x="500" y="395" width="100" height="50" as="geometry" />
        </mxCell>
        <mxCell id="yH6eU9cKHQrGavgD3DMS-117" value="" style="edgeStyle=orthogonalEdgeStyle;rounded=0;orthogonalLoop=1;jettySize=auto;html=1;endArrow=none;endFill=0;" parent="1" source="yH6eU9cKHQrGavgD3DMS-115" target="yH6eU9cKHQrGavgD3DMS-27" edge="1">
          <mxGeometry relative="1" as="geometry" />
        </mxCell>
        <mxCell id="yH6eU9cKHQrGavgD3DMS-118" value="" style="edgeStyle=orthogonalEdgeStyle;rounded=0;orthogonalLoop=1;jettySize=auto;html=1;endArrow=none;endFill=0;" parent="1" source="yH6eU9cKHQrGavgD3DMS-115" target="yH6eU9cKHQrGavgD3DMS-25" edge="1">
          <mxGeometry relative="1" as="geometry" />
        </mxCell>
        <mxCell id="yH6eU9cKHQrGavgD3DMS-115" value="registra" style="shape=rhombus;perimeter=rhombusPerimeter;whiteSpace=wrap;html=1;align=center;" parent="1" vertex="1">
          <mxGeometry x="340" y="320" width="100" height="50" as="geometry" />
        </mxCell>
        <mxCell id="yH6eU9cKHQrGavgD3DMS-124" value="" style="edgeStyle=orthogonalEdgeStyle;rounded=0;orthogonalLoop=1;jettySize=auto;html=1;endArrow=none;endFill=0;" parent="1" source="yH6eU9cKHQrGavgD3DMS-122" target="yH6eU9cKHQrGavgD3DMS-21" edge="1">
          <mxGeometry relative="1" as="geometry">
            <Array as="points">
              <mxPoint x="770" y="55" />
              <mxPoint x="770" y="55" />
            </Array>
          </mxGeometry>
        </mxCell>
        <mxCell id="yH6eU9cKHQrGavgD3DMS-122" value="Status" style="ellipse;whiteSpace=wrap;html=1;align=left;spacingLeft=21;fontStyle=4" parent="1" vertex="1">
          <mxGeometry x="800" y="45" width="20" height="20" as="geometry" />
        </mxCell>
        <mxCell id="yH6eU9cKHQrGavgD3DMS-125" value="" style="edgeStyle=orthogonalEdgeStyle;rounded=0;orthogonalLoop=1;jettySize=auto;html=1;endArrow=none;endFill=0;" parent="1" source="yH6eU9cKHQrGavgD3DMS-123" target="yH6eU9cKHQrGavgD3DMS-21" edge="1">
          <mxGeometry relative="1" as="geometry">
            <Array as="points">
              <mxPoint x="770" y="30" />
              <mxPoint x="770" y="30" />
            </Array>
          </mxGeometry>
        </mxCell>
        <mxCell id="yH6eU9cKHQrGavgD3DMS-123" value="Numero Identificador" style="ellipse;whiteSpace=wrap;html=1;align=left;spacingLeft=21;fontStyle=4" parent="1" vertex="1">
          <mxGeometry x="800" y="20" width="20" height="20" as="geometry" />
        </mxCell>
      </root>
    </mxGraphModel>
  </diagram>
</mxfile>
